<svg width="81" height="81" fill="none" xmlns="http://www.w3.org/2000/svg"><g clip-path="url(#clip0_158_80)"><path d="M69.715 28.69C75.947 28.69 81 33.996 81 40.532c0 6.537-5.053 11.842-11.285 11.842h-58.43C5.053 52.374 0 47.07 0 40.532 0 33.996 5.053 28.69 11.285 28.69h58.43z" fill="url(#paint0_linear_158_80)"/><path d="M28.69 11.021C28.69 4.936 33.967 0 40.532 0c6.566 0 11.836 4.936 11.836 11.021l-.111 58.958c0 6.09-5.276 11.021-11.836 11.021-6.56 0-11.842-4.93-11.842-11.021l.111-58.958z" fill="url(#paint1_linear_158_80)"/><path d="M40.462 55.094c8.062 0 14.597-6.535 14.597-14.597S48.524 25.9 40.462 25.9s-14.597 6.535-14.597 14.597S32.4 55.094 40.462 55.094z" fill="#F9F9F9"/><path d="M69.193 11.912H54.86a14.339 14.339 0 1014.333 14.334V11.912z" fill="#19148C"/><path d="M11.807 69.152h14.339a14.339 14.339 0 10-14.34-14.368v14.368z" fill="#FFE000"/><path d="M69.193 69.152H54.86a14.34 14.34 0 1114.333-14.368v14.368z" fill="#17CE61"/><path d="M11.807 11.912h14.339a14.34 14.34 0 11-14.34 14.351v-14.35z" fill="#D600AE"/><path d="M11.807 11.912h14.34a14.339 14.339 0 017.62 26.475l-.123.076a11.724 11.724 0 01-4.96-8.823v-.809a16.93 16.93 0 01-16.877-16.919z" fill="#FF0086"/><path d="M69.193 11.912H54.86a14.339 14.339 0 00-7.621 26.475l.123.076a11.673 11.673 0 004.953-8.823c0-.252.03-.504.03-.762v-.047a16.93 16.93 0 0016.86-16.936" fill="#7242E5"/><path d="M11.836 69.152H26.17a14.339 14.339 0 007.622-26.474l-.124-.076a11.724 11.724 0 00-4.953 8.822v.803A16.942 16.942 0 0011.848 69.17" fill="#FF0"/><path d="M69.21 69.152H54.873a14.34 14.34 0 01-7.621-26.474l.123-.076a11.724 11.724 0 014.96 8.822v.803A16.942 16.942 0 0169.198 69.17" fill="#0BF40B"/></g><defs><linearGradient id="paint0_linear_158_80" x1="0" y1="40.532" x2="81" y2="40.532" gradientUnits="userSpaceOnUse"><stop stop-color="#009FE3" stop-opacity=".9"/><stop offset="1" stop-color="#1D71B8" stop-opacity=".9"/></linearGradient><linearGradient id="paint1_linear_158_80" x1="28.602" y1="40.503" x2="52.368" y2="40.503" gradientUnits="userSpaceOnUse"><stop stop-color="#35A8E0" stop-opacity=".9"/><stop offset="1" stop-color="#1D70B7" stop-opacity=".9"/></linearGradient><clipPath id="clip0_158_80"><path fill="#fff" d="M0 0h81v81H0z"/></clipPath></defs></svg>