<svg width="397" height="133" viewBox="0 0 397 133" fill="none" xmlns="http://www.w3.org/2000/svg"><path d="M397 .998H0V132.8h397V.998z" fill="#000"/><path d="M295.169 132.8V36.782h32.621v75.654h42.346v20.562M199.823 132.932c-14.424-10.347-21.239-27.679-21.239-44.286 0-27.48 18.526-55.62 53.595-55.62 15.615 0 30.503 5.47 41.42 16.475 4.367 4.547 6.484 7.908 8.602 11.994l-27.459 13.444c-2.581-6.13-7.61-17.003-21.438-17.003-7.146 0-11.712 3.427-13.962 5.47-7.807 7.447-7.807 19.045-7.807 23.131 0 15.223 5.69 29.59 21.769 29.59 15.284 0 19.784-13.444 20.908-16.805l27.79 13.444c-2.58 4.877-5.227 9.556-10.057 14.564a41.292 41.292 0 01-6.815 5.47M87.34 132.932c-1.456-.989-2.58-1.911-3.904-3.098-10.256-9.885-10.388-21.352-10.719-32.028V36.914h32.819v63.99c0 4.349.132 8.896 3.705 12.257 2.581 2.768 6.683 3.691 10.388 3.691 5.227 0 8.47-1.911 10.389-3.559 3.705-3.559 3.903-8.106 3.903-12.455V36.914h32.951v54.5c0 11.796 0 27.019-12.174 38.486-1.125 1.121-2.449 2.109-3.904 3.098M56.175 59.913l-17.666-3.69s-17.534 3.69-17.666 3.69c-.133 0 0 .132 0 .132l.132.989s.33 0 .463.131l.33 1.45s0 .132.133.132h33.481l.33-1.45c.133-.33.463-.33.463-.33l.133-.988v-.132h-.133v.066z" fill="#fff"/><path d="M54.389 63.142v-.527H51.61v.462h.132v.131s0 .462.331.66v.131h-.132v10.149l-.133.132v.132h-.132v.329h2.58v-.33h-.132l-.132-.131V64.13s-.132-.13 0-.13c.33-.133.33-.462.33-.66v-.066h.133v-.132h-.066zM48.566 63.142v-.527h-2.779v.462h.199v.131s0 .462.33.66v.131h-.132v10.149l-.132.132v.132h-.132v.329h2.58v-.33h-.132l-.133-.131V64.13s-.132-.13 0-.13c.331-.133.331-.462.331-.66v-.066h.133v-.132h-.133zM42.876 63.142v-.527h-2.779v.462h.132v.131s0 .462.331.66v.131h-.132v10.149l-.133.132v.132h-.132v.329h2.58v-.33h-.132l-.132-.131V64.13h-.132s-.133-.13 0-.13c.132-.133.33-.462.33-.66v-.066h.133l.066-.132zM37.053 62.615h-2.779v.462h.133v.131s0 .462.33.66v.131h-.132v10.149l-.132.132v.132h-.133v.329h2.581v-.33h-.199l-.132-.131V64.13s-.132-.13 0-.13c.331-.133.331-.462.331-.66v-.066h.132v-.659zM31.23 63.142v-.527h-2.778v.462h.132v.131s0 .462.33.66v.131h-.132v10.149l-.132.132v.132h-.132v.329h2.58v-.33h-.132l-.132-.131V64.13H30.7s-.132-.13 0-.13c.331-.133.331-.462.331-.66v-.066h.133l.066-.132zM25.54 63.142v-.527h-2.779v.462h.133v.131s0 .462.33.66v.131h-.132v10.149l-.132.132v.132h-.133v.329h2.581v-.33h-.132l-.133-.131V64.13h-.132s-.132-.13 0-.13c.132-.133.33-.462.33-.66v-.066h.133l.066-.132zM46.78 52.598h-.331v-.33h-.33v-.329h-.133s-.133 0-.133-.132c0-.33.133-3.097-1.323-4.876-1.125-1.648-2.58-2.439-3.44-2.9 0-.33-.464-.461-.795-.659-.132 0-.132-.132-.132-.132v-.132c0-.131.133-.131.331-.131h.132v-.33s0-.132-.132-.132h-.33s-.133 0-.133-.132v-.131c0-.132 0-.132-.133-.132v-1.911h.133v-.132h-.133v-.132-.462h-.132-.132l-.662-.658s0-.132-.132-.132c-.133 0 0-.132 0-.132v-.132l-.133-.329s-.132.132-.132.33v.263c-.132 0-.132 0-.132.132 0 0-.331.461-.662.659h-.265v.395h-.132v.132h.133v1.911l-.133.132v.132s0 .132-.132.132h-.331s-.132 0-.132.132v.329h.132c.132 0 .33 0 .33.132v.132c0 .131-.131.131-.131.131-.133 0-.662.132-.794.66-.794.329-2.449 1.317-3.441 2.899-1.456 1.911-1.323 4.547-1.323 4.877 0 0 0 .132-.133.132h-.132v.329h-.331v.33h-.33v.329c.131 0 .33.132.33.33 0 .329.132.329.33.329v1.12c0 .33-.131.33-.33.33v1.12l8.139-1.78 8.138 1.78v-1.12c-.132 0-.33-.132-.33-.33v-1.12s.33 0 .33-.33c0-.131.132-.329.33-.329v-.33l-.793.198zM55.712 76.059H54.39v-.989H22.761v.989h-1.323v2.438h-1.456v2.241h37.186v-2.24h-1.456v-2.439z" fill="#fff"/></svg>