<svg width="260" height="324" viewBox="0 0 260 324" fill="none" xmlns="http://www.w3.org/2000/svg">
<path fill-rule="evenodd" clip-rule="evenodd" d="M137.498 128.859C148.834 128.047 164.375 130.295 167.654 143.225C168.671 147.931 170.674 149.996 174.04 153.073C195.405 180.429 120.862 185.028 117.03 158.352C108.957 161.293 100.169 161.916 92.0915 164.889C87.7104 166.508 83.7377 169.062 79.9309 171.734C64.4072 182.764 49.1032 194.109 33.6348 205.218C39.6206 207.975 51.0012 218.503 46.3639 225.578C45.2836 226.956 43.6801 227.906 42.2616 228.914L41.5136 229.448C39.9045 230.601 37.1957 232.568 35.6978 233.636L35.4215 233.837C35.3132 233.916 35.191 234.004 35.0807 234.083C45.8828 249.882 58.5248 264.46 72.548 277.475C73.742 278.586 73.253 281.068 71.5248 281.358L69.4659 281.66C62.8181 282.628 56.0439 283.5 49.3446 282.974C42.8201 282.264 38.8884 276.486 34.4281 272.301C25.5212 263.194 17.23 253.479 9.67808 243.216L9.52083 242.999C7.17042 239.786 4.05069 236.502 3.82237 232.353C3.40596 231.106 4.50181 229.318 5.55476 228.468L5.91424 227.949C11.5617 219.824 17.9533 211.988 25.9611 206.103C25.9313 205.226 26.3365 204.305 27.1389 203.724L60.6054 179.495C69.2403 173.551 77.2662 166.564 86.6258 161.764C96.1962 157.154 106.996 156.973 116.804 153.126C117.012 150.353 122.839 149.645 122.655 150.073C128.804 146.361 131.969 141.943 132.945 137.883C133.921 133.824 132.708 130.121 137.498 128.859ZM220.258 215.845C230.606 200.268 240.47 217.502 244.778 227.89C249.868 242.105 239.327 259.591 232.518 271.845C230.009 275.248 226.711 282.426 222.29 282.947C211.152 282.901 199.998 282.117 188.853 281.883C181.657 280.097 191.754 269.279 198.728 273.23C200.841 274.021 201.897 276.421 203.957 277.191C204.708 277.351 204.76 277.016 205.065 276.269L205.109 276.164C205.653 274.87 206.181 273.569 206.717 272.271C211.255 261.093 216.051 250.013 220.821 238.938C221.84 236.534 220.411 234.553 218.553 233.122C217.131 231.95 211.016 229.091 216.777 230.35C214.559 225.198 217.225 219.97 220.258 215.845ZM194.566 194.522C195.562 194.397 196.842 195.402 196.995 196.375C198.266 204.441 196.85 212.416 195.152 220.306L194.84 221.751C194.214 224.629 193.514 227.564 191.953 230.086C190.359 232.66 187.948 234.601 185.181 235.78C176.302 239.319 165.26 235.819 158.729 229.202C154.551 223.476 158.224 216.284 158.925 210.008C158.262 208.318 158.018 206.362 157.635 204.618L157.588 204.41L156.099 197.906C155.77 196.472 156.815 194.509 158.533 194.706C170.505 196.08 182.607 196.018 194.566 194.522Z" fill="#EDB98A"/>
<rect x="155.422" y="194.865" width="42.0423" height="42.2701" fill="#D8D8D8"/>
<path fill-rule="evenodd" clip-rule="evenodd" d="M236.38 213.807C236.344 213.646 236.536 213.524 236.661 213.644C238.767 215.675 240.254 218.27 241.887 220.676C243.442 222.967 245.135 225.169 246.294 227.697C247.372 230.047 248.067 232.431 248.274 235.014C248.481 237.578 248.213 240.148 247.761 242.673C246.871 247.648 244.97 252.359 242.882 256.935C240.853 261.383 238.56 265.705 236.138 269.948L235.271 271.463C234.212 273.308 233.142 275.148 231.996 276.935C230.57 279.159 229.268 281.454 227.388 283.31C226.053 284.63 223.537 283.31 224.145 281.422C224.409 280.6 224.616 279.826 225.026 279.063C225.337 278.482 225.687 277.918 226.017 277.345C226.676 276.2 227.329 275.05 227.988 273.904C229.372 271.497 230.83 269.134 232.201 266.719C234.58 262.53 236.825 258.262 238.811 253.871L239.045 253.352C240.872 249.285 242.604 245.073 243.406 240.674C244.251 236.039 243.495 231.67 241.849 227.314C240.998 225.061 240.041 222.859 239.046 220.665L238.855 220.246C237.894 218.152 236.875 216.07 236.38 213.807ZM134.094 133.637C134.113 133.555 134.253 133.549 134.266 133.637C134.857 137.573 133.541 141.736 131.397 145.01C130.226 146.798 128.783 148.413 127.082 149.711L126.95 149.811C125.213 151.11 122.865 152.365 120.709 151.522C120.641 151.496 120.578 151.467 120.518 151.433C120.761 151.809 120.985 152.205 121.213 152.6C121.892 153.777 122.5 154.997 123.161 156.184C124.344 158.308 125.754 160.208 127.535 161.872C134.656 168.522 144.656 170.102 154.047 170.026L154.711 170.02C158.836 169.991 164.231 170.202 167.416 167.215C169.127 165.611 170.069 163.33 170.92 161.189C171.757 159.09 172.33 156.924 173.025 154.789C171.573 153.794 170.242 152.579 169.197 151.158C168.106 149.679 167.282 148.014 166.807 146.236L166.737 145.971C166.369 144.553 166 142.678 166.592 141.339C166.659 141.185 166.913 141.195 166.985 141.339C167.304 141.98 167.365 142.702 167.561 143.387C167.79 144.184 168.047 144.976 168.387 145.731C169.044 147.194 169.913 148.584 170.954 149.802C171.814 150.81 172.746 151.735 173.811 152.513C174.438 151.429 175.894 151.283 177.113 151.64C178.747 152.118 180.358 152.731 181.934 153.379L182.249 153.509C183.806 154.155 185.566 154.749 187.023 155.631C187.909 156.053 188.758 156.478 189.556 156.854C193.536 158.724 197.456 160.709 201.358 162.731L202.194 163.165C203.83 164.017 205.45 164.877 206.872 166.065C208.319 167.274 209.443 168.927 210.499 170.476C212.914 174.018 215.189 177.662 217.577 181.223C222.398 188.409 227.219 195.595 232.068 202.764C233.24 204.499 234.563 206.192 235.615 208.001C236.623 209.73 236.595 211.505 236.399 213.435L236.362 213.789C235.985 217.329 235.337 220.728 233.352 223.764C230.228 228.536 225.305 231.507 220.097 233.553C220.733 234.027 221.331 234.538 222.089 234.864C223.256 235.363 224.5 235.621 225.761 235.724C227.107 235.832 228.624 235.496 229.714 236.411C230.151 236.776 230.164 237.656 229.714 238.021C228.666 238.877 227.311 238.632 226.034 238.488L225.958 238.48C224.773 238.349 223.604 238.129 222.491 237.694C222.216 237.586 221.944 237.465 221.68 237.332C221.688 237.356 221.692 237.383 221.688 237.413C221.498 238.869 221.086 240.246 220.65 241.637L220.374 242.519C219.812 244.32 219.246 246.116 218.663 247.913C217.553 251.332 216.344 254.72 215.132 258.103L214.085 261.023C213.009 264.018 211.92 267.009 210.717 269.954C209.973 271.772 209.225 273.589 208.48 275.405C207.751 277.178 207.144 279.093 206.24 280.782C205.497 282.172 203.468 281.177 203.794 279.748C204.22 277.874 205.025 276.014 205.64 274.19C206.266 272.338 206.878 270.485 207.514 268.637C208.62 265.428 209.845 262.262 211.076 259.099L212.296 255.963C213.493 252.891 214.704 249.821 215.999 246.788L216.14 246.456C217.485 243.284 218.873 239.717 221.316 237.259C221.348 237.225 221.392 237.208 221.437 237.203C220.837 236.878 220.275 236.483 219.78 236.016L219.756 235.991C219.561 235.784 218.754 234.764 218.494 234.154C218.156 234.274 217.818 234.39 217.48 234.504C216.89 234.703 216.402 234.559 216.058 234.244L215.402 234.651C214.701 235.079 213.947 235.485 213.172 235.506C212.196 235.532 211.429 234.993 210.907 234.198C210.438 233.488 210.159 232.721 209.566 232.084C208.982 231.459 208.306 230.931 207.616 230.428L206.802 229.835C205.31 228.745 203.863 227.644 202.661 226.205C202.057 225.478 201.248 224.615 200.88 223.742C200.809 223.574 200.764 223.415 200.756 223.261C200.675 223.806 200.593 224.353 200.511 224.899C199.357 232.573 198.425 240.3 198.128 248.06C197.982 251.888 197.916 255.72 198.087 259.549C198.172 261.462 198.311 263.373 198.504 265.279C198.599 266.234 198.698 267.188 198.814 268.139L198.841 268.359C198.875 268.65 198.897 268.932 198.871 269.2C199.801 269.658 200.335 270.817 200.707 271.721C200.99 272.41 200.77 273.08 200.314 273.564C200.859 274.061 201.345 274.644 201.753 275.312C201.835 275.447 201.658 275.553 201.552 275.468C200.882 274.936 200.162 274.498 199.41 274.162C199.015 274.312 198.584 274.352 198.187 274.243C197.756 274.124 197.384 273.837 197.116 273.471C194.98 273.12 192.759 273.549 190.837 274.887C190.437 275.166 190.076 275.481 189.732 275.823C189.673 275.883 189.611 275.959 189.55 276.033L189.969 276.194C190.143 276.26 190.286 276.311 190.34 276.322C190.706 276.397 191.078 276.437 191.45 276.469L192.007 276.515C194.147 276.692 196.281 276.751 198.271 277.647C198.689 277.835 198.544 278.48 198.149 278.588C196.695 278.982 195.253 278.952 193.774 278.846L193.456 278.822C192.081 278.717 190.604 278.723 189.263 278.343C189.584 279.222 189.147 280.37 187.805 280.549C183.776 281.086 179.722 280.833 175.689 280.477C171.616 280.118 167.544 279.778 163.461 279.565C150.251 278.869 137.021 279.003 123.799 279.192L116.328 279.3C110.369 279.384 104.409 279.449 98.4511 279.404L95.6621 279.378C94.4834 279.366 93.304 279.352 92.1267 279.317L91.4205 279.294C90.0177 279.243 88.1606 279.454 86.9416 278.624C85.936 277.939 85.712 276.684 86.3184 275.671C86.4937 275.38 86.7346 275.12 86.986 274.866C87.5015 270.46 87.7909 266.032 88.0867 261.606C89.1134 246.118 88.5134 230.711 86.1451 215.379C79.7902 217.322 73.5325 219.759 67.4353 222.373C64.1374 223.787 60.8564 225.254 57.6134 226.792C54.6536 228.198 51.681 229.954 48.5184 230.867C48.2309 231.122 47.8289 231.244 47.4724 231.131L47.4261 231.114H47.424C47.0987 231.19 46.7374 231.144 46.3825 230.931C46.3106 230.887 46.2388 230.843 46.167 230.798L46.0592 230.73C44.9458 230.028 43.8261 229.164 43.0381 228.107C42.081 228.995 41.0522 229.808 40.0402 230.633C38.9416 231.529 37.8472 232.429 36.7613 233.338C36.3303 233.699 35.855 234.044 35.4747 234.46L35.4195 234.521C35.4106 234.531 35.4022 234.541 35.3944 234.551C37.0402 235.616 38.481 237.233 39.7719 238.638C41.158 240.147 42.4962 241.703 43.8235 243.266L45.1084 244.782C54.1942 255.515 63.373 266.637 75.136 274.526C76.9951 275.773 75.2226 278.81 73.3761 277.535C69.8817 275.128 66.5754 272.455 63.4001 269.641C57.8353 264.715 52.8282 259.188 48.1402 253.429C45.7677 250.514 43.4648 247.528 41.2085 244.522L40.4427 243.503C39.4222 242.143 38.4071 240.779 37.4353 239.385L37.2319 239.092C36.3795 237.862 35.473 236.479 34.9233 235.062C34.712 235.276 34.4733 235.455 34.1247 235.591C33.5289 235.823 32.7979 235.335 32.6522 234.754C32.2972 233.344 33.5226 232.505 34.5198 231.757C35.7303 230.852 36.9641 229.979 38.2001 229.111L38.6415 228.799C40.1871 227.702 41.7407 226.577 43.4247 225.71C43.4754 225.643 43.5367 225.579 43.6064 225.524C43.6867 225.461 43.7648 225.399 43.8451 225.338C41.8339 222.075 39.6282 218.938 37.167 215.975C35.3163 213.746 33.3515 211.617 31.2726 209.601L30.3387 208.696C28.9261 207.332 27.4573 205.947 25.8895 204.761L25.3987 205.318C24.7433 206.059 24.0815 206.795 23.3818 207.492C22.0043 208.861 20.6458 210.259 19.2937 211.655C17.0482 213.98 14.8788 216.375 12.7163 218.774L11.6353 219.974C9.38316 222.474 6.97048 224.928 4.9233 227.599L4.82106 227.735C3.92731 228.934 3.29108 230.261 3.7064 231.784C4.10712 233.253 5.05987 234.555 5.88108 235.823L5.96273 235.95C9.31555 241.175 12.9071 246.266 16.7543 251.138C24.4592 260.896 33.2479 270.144 43.7353 276.929C45.1888 277.869 43.8303 280.207 42.3747 279.256C36.2501 275.251 30.624 270.441 25.4479 265.275C20.6965 260.534 16.3909 255.314 12.3557 249.956C10.3888 247.342 8.50428 244.673 6.69795 241.944C4.94654 239.296 2.92048 236.572 1.65076 233.651C0.985322 232.114 0.7402 230.451 1.28527 228.832C1.78514 227.344 2.77371 226.108 3.80213 224.946L3.89865 224.837C6.26273 222.181 8.66907 219.556 11.0965 216.956C13.5325 214.348 16.0803 211.833 18.681 209.392C20.724 207.471 22.8536 205.778 25.131 204.209C24.9261 204.064 24.7212 203.924 24.512 203.789C23.8761 203.375 23.7156 202.489 24.2733 201.927C25.7965 200.388 27.5522 199.05 29.2043 197.649C30.7571 196.332 32.3099 195.014 33.8627 193.695C37.0233 191.015 40.1839 188.333 43.3444 185.651C49.0212 180.834 54.6663 175.984 60.324 171.146C62.6832 169.129 65.0643 167.138 67.4394 165.14L71.6591 161.588L73.7229 159.854C74.7803 158.968 75.8603 158.092 77.0627 157.417C79.8921 155.827 83.2937 155.139 86.411 154.296L86.6184 154.24C90.1149 153.283 93.6303 152.382 97.1648 151.579C100.704 150.776 104.257 150.045 107.825 149.383C111.032 148.787 114.316 148.276 117.586 148.2C118.397 147.891 119.416 147.783 120.214 148.113C120.544 148.25 120.888 148.451 121.194 148.705C122.794 148.142 124.372 147.874 125.866 146.923C127.357 145.974 128.678 144.727 129.789 143.353C132.085 140.509 133.287 137.148 134.094 133.637ZM170.857 229.969C169.59 229.88 168.449 230.404 167.316 230.962C167.954 231.239 168.592 231.514 169.23 231.786L173.477 233.6C174.88 234.198 176.365 234.718 177.698 235.455C177.793 235.508 177.869 235.572 177.926 235.646C179.312 234.758 180.778 233.966 182.183 233.122C182.504 232.93 182.828 232.738 183.151 232.545C181.478 233.105 179.762 233.386 177.945 232.86C175.522 232.161 173.418 230.149 170.857 229.969ZM174.33 225.716L174.103 225.562C172.873 224.718 171.406 223.633 169.913 224.391C169.209 224.749 168.632 225.325 167.94 225.71C167.242 226.099 166.475 226.397 165.698 226.577C164.407 226.875 162.928 226.919 161.54 226.631L161.561 228.508C162.611 228.942 163.655 229.386 164.699 229.834C165.376 229.602 166.028 229.323 166.714 229.018L167.177 228.811C168.497 228.217 169.83 227.82 171.29 228.008C174.039 228.36 176.116 230.404 178.744 231.085C181.966 231.922 184.873 229.517 187.917 228.923C188.419 228.824 188.936 228.766 189.451 228.757L189.622 228.756L189.698 228.711C190.353 228.327 191.333 227.959 191.79 227.312C192.286 226.611 192.328 225.435 192.491 224.611C192.508 224.529 192.525 224.444 192.54 224.362C192.252 224.362 191.961 224.376 191.665 224.431C190.735 224.603 189.861 224.932 188.994 225.3C187.357 225.995 185.756 226.788 184.032 227.251C182.344 227.705 180.58 227.921 178.841 227.669C177.144 227.424 175.735 226.659 174.33 225.716ZM174.595 219.118L174.34 218.954C173.669 218.525 172.899 218.081 172.076 218.239C171.341 218.381 170.709 218.966 170.069 219.327C168.664 220.12 167.088 220.553 165.48 220.663C164.143 220.754 162.755 220.591 161.468 220.194L161.513 224.349C161.984 224.499 162.472 224.607 162.985 224.645C164.544 224.761 166.066 224.387 167.373 223.527L168.035 223.088C169.167 222.343 170.229 221.753 171.728 222.024C173.211 222.295 174.455 223.246 175.668 224.074L175.867 224.208C177.259 225.128 178.671 225.721 180.379 225.736C182.223 225.75 184.047 225.237 185.764 224.605C187.469 223.979 189.09 223.229 190.913 222.999C191.471 222.929 192.151 222.908 192.791 223.018C192.875 222.546 192.956 222.077 193.032 221.606C193.197 220.593 193.338 219.583 193.461 218.571C190.226 217.7 187.239 220.517 184.235 221.386C182.492 221.889 180.594 221.883 178.851 221.396C177.239 220.946 175.971 220.012 174.595 219.118ZM174.603 212.12C173.912 211.987 173.23 212.306 172.642 212.634C171.144 213.465 169.851 214.621 168.155 215.058C165.973 215.62 163.585 215.136 161.418 214.217C161.426 215.5 161.437 216.783 161.447 218.066C161.855 218.22 162.273 218.345 162.7 218.444C164.217 218.791 165.825 218.744 167.318 218.307C168.842 217.86 170.01 216.656 171.537 216.28C173.099 215.894 174.572 216.645 175.83 217.498L176.209 217.757C177.648 218.734 179.043 219.582 180.844 219.748C182.747 219.923 184.401 219.327 186.102 218.537L186.498 218.354C188.651 217.364 191.446 216.238 193.596 217.364C193.765 215.766 193.887 214.169 193.97 212.568C193.674 212.458 193.368 212.378 193.015 212.376C192.172 212.372 191.287 212.638 190.501 212.915C188.783 213.522 187.184 214.426 185.483 215.075C183.871 215.692 182.086 216.013 180.366 215.737C178.773 215.481 177.578 214.648 176.477 213.507L176.317 213.338C175.834 212.824 175.318 212.259 174.603 212.12ZM175.864 206.188C175.068 205.767 174.098 205.376 173.177 205.499C172.298 205.615 171.712 206.211 171.171 206.849L170.878 207.198C169.91 208.344 168.957 209.307 167.464 209.779C165.918 210.265 164.278 210.074 162.839 209.362C162.328 209.109 161.853 208.794 161.375 208.483L161.401 211.854C162.356 212.329 163.328 212.759 164.394 213.019C166.363 213.498 168.037 213.143 169.72 212.057L169.897 211.942C171.166 211.109 172.466 210.117 174.032 210.024C175.561 209.932 176.709 210.78 177.715 211.818L177.833 211.941C179.103 213.28 180.385 213.934 182.274 213.779C184.105 213.63 185.819 212.821 187.496 212.124L187.649 212.061C189.182 211.431 190.951 210.782 192.635 211.023C193.038 211.08 193.56 211.205 194.025 211.423C194.092 209.846 194.124 208.267 194.13 206.687C193.173 205.856 191.684 205.719 190.486 206.059C188.61 206.591 187.074 207.965 185.282 208.711C183.694 209.373 182.037 209.521 180.417 208.895C178.744 208.248 177.432 207.016 175.864 206.188ZM194.025 199.547C191.221 199.644 188.479 201.468 185.802 202.164C182.812 202.94 180.372 201.882 177.708 200.707L177.364 200.555C175.997 199.955 174.529 199.416 173.014 199.661C171.537 199.902 170.232 200.72 168.962 201.46L168.719 201.6C166.406 202.917 164.05 203.819 161.35 203.594C161.365 204.442 161.359 205.287 161.361 206.116C161.804 206.369 162.231 206.657 162.637 206.919L162.782 207.011C164.07 207.817 165.397 208.346 166.932 207.849C168.415 207.367 169.112 206.076 170.13 205.013C171.066 204.036 172.287 203.443 173.656 203.499C175.129 203.558 176.521 204.207 177.738 205C178.955 205.793 180.132 206.817 181.556 207.215C184.75 208.102 187.486 204.723 190.507 204.197C191.775 203.975 193.173 204.256 194.13 205.021C194.12 203.199 194.08 201.373 194.025 199.547ZM169.894 198.782C169.499 198.797 169.104 198.814 168.709 198.831C167.247 198.894 165.785 198.966 164.323 199.048C163.311 199.103 162.066 199.414 161.073 199.105C161.048 199.207 161.014 199.304 160.97 199.399C161.12 200.147 161.213 200.921 161.27 201.703C162.187 201.802 163.118 201.768 164.023 201.58C166.192 201.13 167.954 199.761 169.894 198.782ZM193.982 198.154C188.644 198.522 183.264 198.396 177.917 198.511L177.275 198.526C177.25 198.526 177.225 198.529 177.199 198.529C177.813 198.766 178.421 199.038 179.027 199.316L179.633 199.594C181.066 200.253 182.523 200.792 184.127 200.676C185.844 200.551 187.463 199.85 189.068 199.283C190.6 198.742 192.364 198.378 193.997 198.615C193.993 198.461 193.989 198.309 193.982 198.154Z" fill="black"/>
<path fill-rule="evenodd" clip-rule="evenodd" d="M179.845 74.6533C179.031 69.7164 181.703 68.692 179.845 63.999C175.717 55.3033 164.467 55.678 156.211 55.0094C147.003 54.6556 137.682 55.8743 129.194 59.5742C127.166 60.4579 125.216 61.4971 123.346 62.6779C121.729 63.699 121.952 65.6405 122.971 66.6995C115.621 77.1343 119.825 91.1408 113.96 102.125C112.876 104.088 111.443 105.849 110.502 107.891C109.07 110.997 108.978 115.446 112.225 117.509C116.797 119.969 119.348 115.098 121.595 122.159C132.814 146.779 155.372 148.166 176.786 135.33C178.639 134.296 180.53 133.129 181.929 131.506C185.105 127.923 184.731 122.885 184.801 118.411C184.84 115.789 184.847 113.167 184.821 110.544C184.721 99.9223 181.209 85.1878 179.845 74.6533Z" fill="#EDB98A"/>
<path fill-rule="evenodd" clip-rule="evenodd" d="M134.234 45.1248C147.164 39.245 161.829 37.0152 175.933 38.4778C182.895 39.1985 189.764 40.7449 196.302 43.2567L196.875 43.4787C198.489 44.1014 200.229 44.7195 201.455 45.9871C202.883 47.4602 203.283 49.6878 202.263 51.5075C201.47 52.9215 200.045 53.9357 198.525 54.477C199.06 54.9166 199.568 55.4069 200.045 55.9543C200.848 56.8716 200.909 58.1797 200.045 59.0844C198.379 60.8281 196.218 62.0896 193.891 62.6943C194.152 63.9603 194.011 65.3615 193.45 66.6233C191.841 70.2452 187.308 70.6769 183.82 70.4618L183.715 70.4551L183.521 72.6806C183.417 73.8663 182.709 74.7857 181.507 74.9674C181.465 74.9738 181.423 74.978 181.381 74.982C183.282 81.8765 184.431 88.984 185.492 96.0496C186.046 99.7379 186.542 103.435 187.017 107.134L187.174 108.367C187.68 112.355 188.313 116.384 188.532 120.401C188.728 124.047 188.034 127.528 185.793 130.47C183.782 133.108 181.039 135.084 178.09 136.551C171.426 139.867 164.412 142.335 157.041 143.481L156.55 143.557C153.705 143.992 150.774 144.359 147.959 143.57C145.486 142.876 142.893 141.088 143.452 138.216C143.639 137.246 144.993 137.204 145.457 137.954L145.564 138.126C146.12 139.011 146.729 139.833 147.7 140.289C148.836 140.826 150.154 140.976 151.396 140.991C154.864 141.031 158.475 140.165 161.814 139.296C168.051 137.673 174.455 135.027 179.564 131.018C181.737 129.314 183.483 127.184 184.098 124.442C184.859 121.063 184.159 117.369 183.814 113.972C183.102 106.964 182.255 99.9686 181.362 92.9812L181.183 91.5838C180.43 85.7421 179.64 79.8982 179.264 74.0227C179.108 73.8092 179.003 73.5662 178.961 73.2999L178.902 72.9173C178.851 72.5897 178.843 72.2896 178.878 72.0127C178.88 70.9518 178.91 69.8971 178.971 68.8359C178.981 68.6459 178.99 68.4557 178.996 68.2676C177.896 68.5107 176.787 68.7072 175.674 68.8742C167.848 70.0556 159.9 70.3515 152.011 69.764C148.075 69.47 144.169 68.9651 140.275 68.3331C138.293 68.0119 136.318 67.6568 134.349 67.2595C132.925 66.9741 131.532 66.5874 130.132 66.2239C128.688 68.331 127.908 70.9243 128.06 73.4711C128.23 76.3771 130.162 79.0127 129.62 81.9821C129.111 84.7612 126.736 85.6229 124.392 86.3111L123.394 86.6C122.627 86.8245 122.07 87.0412 121.931 87.9655C121.693 89.5527 121.986 91.3386 122.047 92.9343C122.121 94.8217 122.218 96.709 122.262 98.5964C122.285 99.5728 122.323 100.553 122.321 101.53C122.319 102.223 122.216 102.697 121.948 103.144C122.155 103.405 122.34 103.686 122.505 103.984C122.557 104.081 122.427 104.184 122.349 104.104C122.14 103.886 121.918 103.69 121.684 103.514C121.566 103.66 121.429 103.808 121.269 103.967L121.257 103.95C120.755 104.451 119.958 104.499 119.336 103.967L119.172 103.825C118.717 103.425 118.404 103.092 118.278 102.43C118.271 102.396 118.265 102.363 118.261 102.329C117.103 102.289 115.927 102.563 114.885 103.14C113.235 104.056 112.073 105.36 111.386 106.97C111.66 107.291 111.98 107.579 112.354 107.82C112.406 107.856 112.36 107.934 112.303 107.906C111.921 107.727 111.58 107.505 111.274 107.245C111.027 107.879 110.855 108.559 110.749 109.28C110.378 111.825 111.04 114.934 113.334 116.384C114.327 117.011 115.461 117.352 116.637 117.356C117.211 117.358 117.706 117.261 118.263 117.123C118.64 117.03 119.015 116.895 119.41 116.895C119.747 116.895 120.059 116.98 120.348 117.149L120.268 117.156C120.073 117.174 120.111 117.182 120.382 117.182C121.225 117.218 121.707 118.077 121.32 118.823L121.269 118.938C121.258 118.961 121.249 118.98 121.242 118.996L121.211 119.194C121.208 119.212 121.205 119.232 121.202 119.252L121.19 119.292C121.188 119.298 121.186 119.304 121.183 119.311L122.447 121.244C123.998 123.61 125.583 125.966 127.387 128.126C128.652 129.642 129.993 131.127 131.41 132.503C132.683 133.74 134.209 134.336 135.651 135.308C136.421 135.824 136.647 136.904 135.947 137.599C133.893 139.643 130.986 138.02 129.301 136.358C127.708 134.784 126.331 132.89 125.144 130.994C123.038 127.623 121.362 124.039 120.628 120.148C120.323 120.429 119.933 120.604 119.538 120.742C118.748 121.016 117.877 121.131 117.042 121.16C115.442 121.213 113.84 120.824 112.4 120.135C106.541 117.335 105.681 108.948 109.263 104.003C108.78 102.599 108.51 101.075 108.217 99.7759L108.084 99.1951C106.602 92.7082 105.608 85.8784 108.234 79.522C108.571 78.702 108.951 77.9031 109.4 77.138C109.76 76.523 110.38 75.8678 110.551 75.1682C110.93 73.6317 108.588 72.017 107.905 70.7975C107.102 69.3666 106.988 67.6779 108.082 66.3695C108.221 66.2048 108.373 66.0525 108.538 65.9195C107.5 64.0343 107.452 61.6629 108.818 59.803C109.716 58.5772 111.086 57.7191 112.583 57.4592C113.498 57.3006 114.599 57.3598 115.604 57.643C121.111 52.5178 127.394 48.2358 134.234 45.1248ZM113.089 109.255C114.559 107.955 116.182 107.274 118.185 107.446C120.198 107.619 122.623 108.454 123.805 110.185C124.739 111.552 122.836 113.558 121.465 112.531C120.217 111.594 119.384 110.538 117.835 110.035C116.443 109.584 114.721 109.295 113.264 109.553C113.104 109.58 112.944 109.382 113.089 109.255Z" fill="black"/>
<path fill-rule="evenodd" clip-rule="evenodd" d="M168.319 128.112C166.762 128.563 165.092 128.603 163.505 128.137C162.066 127.715 160.589 126.785 159.53 125.555C158.589 124.462 157.98 123.134 158.004 121.717C158.007 121.555 158.065 121.42 158.154 121.315C158.249 121.202 158.383 121.124 158.527 121.091C158.674 121.056 158.83 121.068 158.963 121.129C159.083 121.183 159.186 121.276 159.25 121.412C159.413 121.626 159.575 121.836 159.738 122.041C161.046 123.658 162.314 124.866 164.281 125.299C165.349 125.534 166.415 125.43 167.394 125.071C168.441 124.687 169.388 124.012 170.13 123.148C170.465 122.757 170.861 122.598 171.248 122.595C171.686 122.592 172.12 122.796 172.446 123.122C172.767 123.442 172.982 123.878 173.002 124.333C173.019 124.732 172.889 125.15 172.542 125.522C171.4 126.749 169.92 127.648 168.319 128.112ZM168.271 107.866C169.866 108.836 172.297 111.098 170.581 113.503C168.56 115.624 165.652 113.193 164.218 112.093C162.889 111.241 161.396 113.433 162.629 114.428C172.986 122.099 177.19 108.12 169.078 106.726C168.184 106.572 167.853 107.566 168.271 107.866ZM153.347 103.598C152.834 103.27 152.231 103.157 151.562 103.461C151.04 103.699 150.124 104.491 149.486 105.533C149.05 106.245 148.741 107.081 148.805 107.952C148.82 108.154 148.745 108.303 148.627 108.413C148.534 108.5 148.4 108.564 148.242 108.584C148.108 108.601 147.958 108.586 147.836 108.548C147.604 108.475 147.481 108.325 147.435 108.202C146.989 107.016 147.181 105.692 147.681 104.498C148.357 102.886 149.583 101.536 150.386 101.101C151.761 100.356 153.383 100.322 154.76 101.081C155.932 101.727 156.665 102.77 157.394 103.833C157.549 104.059 157.702 104.283 157.861 104.504C158.18 104.945 158.212 105.383 158.088 105.759C157.952 106.175 157.603 106.526 157.167 106.71C156.765 106.88 156.297 106.903 155.884 106.729C155.534 106.582 155.214 106.294 155.011 105.807C154.669 104.985 154.1 104.079 153.347 103.598V103.598ZM179.389 105.425C179.038 105.608 178.763 105.663 178.373 105.546C178.158 105.481 177.945 105.357 177.778 105.19C177.613 105.025 177.494 104.82 177.448 104.592C177.334 104.029 177.026 103.502 176.587 103.159C176.213 102.865 175.739 102.71 175.215 102.798C174.648 102.892 174.109 103.256 173.737 103.684C173.613 103.827 173.516 103.99 173.418 104.152C173.235 104.454 173.057 104.735 172.804 104.957C172.709 105.042 172.564 105.1 172.425 105.1C172.368 105.1 172.31 105.091 172.255 105.074C171.692 104.508 171.583 104.079 171.602 103.653C171.621 103.206 171.797 102.754 172.081 102.332C172.748 101.343 174.015 100.531 174.869 100.348C176.04 100.096 177.202 100.398 178.134 101.052C179.093 101.725 179.804 102.77 180.026 103.947C180.079 104.231 180.056 104.537 179.948 104.802C179.843 105.062 179.659 105.284 179.389 105.425ZM155.928 93.0475C155.226 93.7322 154.394 93.8382 153.553 93.9325C153.086 93.9855 152.713 94.0281 152.346 94.111C151.337 94.3388 150.339 94.682 149.429 95.1763C148.478 95.693 147.441 96.3162 146.696 97.1145C146.518 97.3044 146.351 97.5037 146.184 97.7035C146.031 97.8857 145.884 98.061 145.729 98.2301C145.551 98.4243 145.382 98.6279 145.214 98.8309C145.11 99.0022 145.089 99.0444 145.068 99.0882C145.037 99.1541 145 99.2279 144.958 99.307C144.901 99.4154 144.834 99.534 144.764 99.6416C144.647 99.8382 144.584 99.8923 144.53 99.9165C144.44 99.9566 144.354 99.9764 144.271 99.9657C144.194 99.9557 144.121 99.9184 144.048 99.8573C143.688 99.5525 143.581 99.0522 143.592 98.5212C143.609 97.7153 143.906 96.8232 144.18 96.2747C144.817 95.0003 145.7 93.6755 146.762 92.7244C147.974 91.6387 149.3 90.8168 150.822 90.2504C151.769 89.8983 152.864 89.5751 153.895 89.6159C154.637 89.6453 155.346 89.866 155.931 90.4171C156.29 90.7554 156.463 91.2366 156.463 91.7175C156.463 92.208 156.284 92.7013 155.928 93.0475ZM180.818 99.3172C180.773 99.3904 180.711 99.4409 180.642 99.4712C180.57 99.503 180.49 99.5122 180.412 99.4991C180.335 99.4862 180.262 99.4513 180.204 99.398C180.149 99.3469 180.106 99.2791 180.087 99.1961C179.621 97.1469 178.715 95.6223 176.783 94.6392C175.832 94.1555 174.738 93.8482 173.703 93.6032C173.403 93.532 173.085 93.4859 172.765 93.4392C171.762 93.2926 170.751 93.1248 170.098 92.3137C169.704 91.8251 169.538 91.2003 169.632 90.6288C169.72 90.0908 170.034 89.5974 170.605 89.3018C172.028 88.5661 173.795 89.288 175.232 89.903C175.338 89.9486 175.443 89.9934 175.545 90.0366C176.95 90.6297 178.231 91.4127 179.284 92.5323C180.119 93.4206 180.894 94.7338 181.205 96.0847C181.465 97.2085 181.404 98.3559 180.818 99.3172Z" fill="black"/>
<path fill-rule="evenodd" clip-rule="evenodd" d="M149.449 129.599C151.159 125.59 154.893 122.644 159.191 121.566C162.347 120.778 165.66 120.803 168.877 121.116C170.563 121.279 172.371 121.412 173.96 122.039C175.317 122.574 176.422 123.585 177.253 124.772C178.243 126.179 178.916 127.789 179.389 129.439C179.456 129.674 179.519 129.91 179.578 130.148C179.372 131.393 178.936 132.453 177.783 133.236C176.658 134 175.316 134.313 173.978 134.424C173.846 134.361 173.72 134.296 173.603 134.23C171.518 133.035 170.051 130.213 167.419 130.595C165.07 130.936 163.524 133.893 162.127 135.626C157.644 136.149 153.164 134.801 149.516 132.236C149.33 131.359 149.32 130.473 149.449 129.599M182.625 126.558C182.266 125.551 181.815 124.576 181.279 123.657C179.509 120.619 176.791 118.198 173.565 116.814C165.934 113.546 156.06 115.85 149.897 121.211C147.792 123.044 145.663 125.737 145.019 128.634C144.827 128.672 144.646 128.772 144.496 128.913C140.044 126.108 135.458 123.41 131.87 119.523C129.264 116.698 127.452 113.355 126.342 109.682C126.251 109.38 125.764 109.424 125.779 109.759C125.783 109.837 125.787 109.915 125.792 109.993C125.745 109.849 125.526 109.923 125.509 110.063C124.912 114.525 124.165 119.256 124.853 123.742C125.264 126.418 126.479 128.377 128.104 130.493C129.845 132.761 131.815 134.87 133.83 136.893C135.109 138.177 136.444 139.658 138.01 140.6C139.831 141.694 141.896 142.525 143.839 143.369C145.816 144.231 147.823 145.026 149.867 145.716C153.954 147.1 158.178 148.056 162.476 148.475C165.917 148.809 169.85 149.173 173.148 147.878C175.675 146.886 177.715 145.092 179.334 142.934C181.095 140.583 182.488 137.905 183.258 135.082C184.058 132.149 182.794 127.03 182.625 126.558Z" fill="#2C1B18"/>
<path fill-rule="evenodd" clip-rule="evenodd" d="M190.723 102.353C188.709 115.983 174.648 117.49 172.15 103.959C172.551 103.784 172.839 103.438 172.779 102.767C172.765 99.818 173.68 96.7014 176.339 95.0616C179.087 93.3695 182.303 93.2017 185.482 93.2444C191.55 93.0998 191.423 98.1737 190.723 102.353M169.949 96.4256C168.045 96.3453 165.635 96.4125 163.929 97.5733C163.46 96.3098 162.242 94.9608 161.01 94.2394C165.587 94.3734 170.298 93.9228 174.908 93.573C173.805 94.3256 172.778 95.4564 172.111 96.7636C171.491 96.4332 170.604 96.4641 169.949 96.4256M161.555 103.798C156.274 121.982 143.093 114.056 141.656 111.726C139.064 107.87 138.576 98.4956 140.834 95.9892C144.066 93.7227 148.642 94.306 152.46 94.2504C159.474 94.3451 164.456 96.4442 161.555 103.798M196.958 95.435C195.524 95.2473 193.991 95.2095 192.657 95.8414C192.246 94.0951 190.957 92.6351 189.501 91.9925C189.324 91.7715 189.351 91.6527 188.749 91.6859C185.053 90.5746 180.917 91.1626 177.365 92.3022C171.755 92.7748 165.87 93.1474 160.213 93.7985C154.914 91.4179 138.923 91.0689 137.929 96.9367C136.679 96.7496 134.55 95.7654 133.5 97.1005C125.795 95.7937 117.833 97.6098 110.094 98.4187C108.147 98.7775 107.143 102.645 109.354 102.592C110.597 102.254 109.316 100.184 110.99 100.028C118.456 99.2123 125.76 98.0549 133.302 97.9194C133.04 99.2224 138.291 99.3072 138.369 98.5463C138.38 98.552 138.392 98.5558 138.403 98.5609C137.106 103.399 138.277 110.361 140.622 113.361C143.908 117.289 152.157 118.416 155.814 115.889C160.533 113.556 165.441 101.847 164.062 97.9566C166.564 97.1632 169.038 97.4014 171.635 97.8055C171.041 99.4855 170.014 103.621 171.491 103.98C171.22 112.191 178.689 117.314 185.576 113.946C191.536 111.147 193.62 102.288 192.891 96.9102C193.633 98.3445 199.863 96.783 196.958 95.435" fill="#4C1100"/>
</svg>
