<svg width="247" height="324" viewBox="0 0 247 324" fill="none" xmlns="http://www.w3.org/2000/svg">
<path fill-rule="evenodd" clip-rule="evenodd" d="M241.496 179.325C238.479 179.621 235.463 179.917 232.446 180.213C217.998 181.317 203.555 183.624 189.218 185.008C188.861 184.427 188.162 184.522 187.738 184.926C186.307 184.801 184.704 183.707 183.408 184.845C183.366 184.839 183.323 184.832 183.281 184.828C180.973 180.397 179.379 175.672 177.83 170.94C176.842 168.031 175.513 165.214 173.056 163.261C168.864 160.35 159.258 154.446 154.335 154.694C154.254 153.813 153.843 152.904 153.168 152.317C154.655 149.781 148.71 148.126 148.29 148.42C148.559 139.947 144.575 132.589 135.791 130.902C127.921 129.262 116.727 128.986 112.495 137.214C112.03 137.161 107.274 137.137 106.814 137.188C106.098 136.282 98.2412 144.871 101.461 147.862C72.6714 160.602 56.3014 159.082 48.3328 194.899C47.2555 198.264 47.1771 201.946 46.0395 205.236C41.9924 214.69 38.7098 224.756 37.8928 235.043C35.9197 235.549 35.6928 239.029 37.9783 239.533C38.8513 239.725 39.5813 239.988 40.2179 240.487C39.7202 248.917 41.7583 268.174 43.0424 268.114C45.6607 276.451 57.3399 278.803 65.6084 275.874C64.1831 278.557 65.6084 280.243 65.6084 281.677C95.3606 282.803 127.892 282.154 157.636 283.698C161.44 283.644 165.442 284.633 169.195 284.064C171.484 283.515 171.487 279.915 169.166 279.47L179.309 277.266C179.083 277.181 183.491 274.248 186.822 268.767C189.923 262.635 187.813 255.234 189.218 248.565C200.192 247.667 211.347 247.283 222.202 245.424C223.681 249.854 230.088 244.556 232.124 242.425C232.122 242.422 232.119 242.418 232.117 242.415C233.102 242.145 233.892 241.221 233.919 240.127C234.61 239.139 234.755 237.747 234.092 236.792C237.13 219.257 241.761 201.353 243.435 183.653C244.027 183.522 244.584 183.263 245.056 182.863L245.018 182.824C245.818 181.932 245.974 180.391 244.64 179.632C243.563 179.02 242.664 179.21 241.496 179.325Z" fill="#EDB98A"/>
<path fill-rule="evenodd" clip-rule="evenodd" d="M126.761 244.955L129.085 246.434L148.099 252.564L159.718 254.043L169.225 252.564V268.838L171.127 284.055C170.282 285.605 162.254 285.605 147.042 284.055C137.345 283.067 101.906 282.587 93.8375 282.376L93.3803 282.364C83.8987 282.09 74.5325 282.09 65.2817 282.364V276.657L91.6901 263.554L115.352 250.239L126.761 244.955ZM113.288 135.884L115.034 137.188L111.221 143.455L129.795 158.484V170.489L135.675 176.052L139.036 170.489L143.772 164.188L147.137 153.975L145.991 147.246L148.296 147.029C148.307 147.489 148.305 147.953 148.29 148.42C148.71 148.126 154.655 149.781 153.168 152.317C153.843 152.904 154.254 153.813 154.335 154.694C159.258 154.446 168.864 160.35 173.056 163.261C175.513 165.215 176.842 168.031 177.83 170.94L178.063 171.65L178.303 172.378L178.545 173.106C179.882 177.108 181.326 181.074 183.281 184.828C183.323 184.832 183.366 184.839 183.408 184.845C184.704 183.707 186.307 184.801 187.738 184.926C188.152 184.532 188.828 184.431 189.192 184.969L189.218 185.008L171.393 188.521L159.633 229.786L149.393 221.47L143.896 222.288L129.38 227.525L112.497 231.912L73.9554 242.542H69.0472L40.4871 235.643L37.9132 234.793C38.7632 224.593 42.0253 214.613 46.0395 205.236C47.1771 201.946 47.2555 198.264 48.3328 194.9C56.3014 159.082 72.6714 160.603 101.461 147.862C98.2412 144.871 106.098 136.282 106.814 137.188L106.859 137.184L106.956 137.179L107.082 137.175C108.205 137.142 112.077 137.167 112.495 137.214C112.737 136.743 113.002 136.3 113.288 135.884Z" fill="#242424"/>
<path fill-rule="evenodd" clip-rule="evenodd" d="M244.345 180.578L243.814 183.538C243.688 183.579 243.56 183.614 243.43 183.643C243.263 185.407 243.067 187.174 242.845 188.942L239.554 207.295C238.986 210.542 238.447 213.796 237.912 217.051L237.203 220.548L236.764 222.721C235.816 227.427 234.895 232.117 234.087 236.782C234.209 236.958 234.304 237.148 234.373 237.348L234.31 237.611L234.267 237.787L234.223 237.96C233.585 240.412 232.476 242.789 229.862 243.511C227.89 244.055 225.726 244.104 223.689 244.319L223.464 244.343L187.832 248.352C183.526 248.836 179.223 249.335 174.92 249.839L171.189 250.277C165.99 250.879 160.761 251.353 155.638 252.443C155.45 252.483 155.294 252.559 155.167 252.658C156.198 248.751 157.186 244.85 158.081 240.904C159.088 236.463 160.044 232.013 161.121 227.588C163.292 218.673 165.725 209.817 168.389 201.037C168.948 199.194 169.52 197.355 170.104 195.52L170.514 194.238L170.83 193.216C171.318 191.657 171.923 190.055 173.355 189.196C175.031 188.19 177.317 188.023 179.218 187.675L180.505 187.433C182.431 187.074 184.359 186.728 186.29 186.396C195.534 184.805 204.831 183.529 214.162 182.571C223.871 181.573 233.615 180.925 243.37 180.608L244.345 180.578ZM155.905 241.773L155.996 241.78L154.665 252.424C154.452 252.275 154.182 252.184 153.852 252.185C149.486 252.197 145.301 250.802 141.253 249.267L140.637 249.032L138.918 248.371C137.171 247.702 135.415 247.047 133.626 246.504L132.903 246.285L132.535 246.177C131.181 245.781 129.756 245.422 128.347 245.332L128.155 245.322L128.565 245.106C128.625 245.075 128.678 245.039 128.725 245.001C129.5 245.059 130.277 245.043 131.095 244.896C132.634 244.619 134.13 244.083 135.503 243.338L136.117 243.005L136.368 242.872L136.534 242.786L136.699 242.702C137.879 242.114 139.007 241.746 140.496 242.059C142.187 242.415 143.669 243.327 145.194 244.097L145.464 244.232L145.646 244.32L145.832 244.407L146.019 244.493C148.081 245.421 151.361 246.422 152.152 243.619C152.469 242.492 152.22 241.437 151.67 240.512C152.696 240.423 154.531 241.634 155.905 241.773ZM207.217 206.704L207.242 206.831C207.533 208.401 206.802 209.903 205.696 210.998C204.789 211.896 203.183 212.395 202.728 213.686C202.469 214.421 202.745 215.118 203.277 215.604L203.154 215.664L203.034 215.725L202.917 215.787L202.803 215.85L202.692 215.912C200.885 216.951 199.413 218.64 201.043 220.68C202.892 222.995 206.756 223.07 209.478 222.889L209.661 222.876C212.301 222.678 215.427 221.791 216.858 219.353C217.515 218.234 217.443 216.882 216.528 215.924C215.975 215.347 214.991 214.754 214.088 214.684C214.127 214.175 214.067 213.683 213.888 213.268C213.501 212.372 212.471 211.768 211.477 211.746C211.558 209.842 210.033 207.962 208.911 206.44L208.796 206.284L208.685 206.13C208.17 205.413 207.068 205.815 207.217 206.704ZM208.723 208.731L209.746 212.563L209.728 212.595C209.368 213.279 210.313 214.056 210.873 213.481L210.929 213.42C211.594 212.733 212.614 213.657 212.627 214.388C212.645 215.417 211.976 216.212 211.178 216.738L211.122 216.774L210.975 216.866C210.32 217.299 210.816 218.204 211.535 218.094C212.426 217.957 213.156 217.251 213.606 216.368C214.087 216.506 214.634 216.489 215.141 216.773C216.417 217.487 215.683 218.736 214.852 219.491L214.818 219.521L214.75 219.58C213.226 220.88 211.15 221.332 209.194 221.429L209.081 221.434C207.104 221.519 204.529 221.547 202.836 220.384C201.781 219.661 201.476 218.634 202.368 217.662C202.873 217.113 203.382 216.559 203.906 216.023C204.691 216.398 205.392 216.246 206.195 215.891C206.298 215.846 206.241 215.688 206.14 215.688C205.697 215.688 204.072 214.865 203.993 214.34C203.92 213.854 204.819 213.444 205.256 213.209L205.32 213.174L205.375 213.142C205.832 212.865 206.262 212.542 206.655 212.18C207.654 211.261 208.379 210.108 208.696 208.846L208.723 208.731Z" fill="#A8A8A8"/>
<path fill-rule="evenodd" clip-rule="evenodd" d="M113.043 135.303C113.94 133.049 116.97 133.925 116.632 136.293C116.43 137.711 115.654 139.209 114.956 140.452C114.388 141.463 113.741 142.451 112.862 143.209C114.426 144.668 116.048 146.074 117.712 147.409C119.528 148.866 121.437 150.208 123.411 151.442C125.141 152.524 126.95 153.483 128.581 154.717C130.098 155.865 131.479 157.246 132.183 159.048C132.931 160.967 132.606 162.949 132.054 164.867L131.991 165.084C131.428 166.984 130.452 169.274 131.805 171.064C132.493 171.976 133.494 172.621 134.359 173.35C135.127 173.997 135.848 174.702 136.509 175.458C137.951 177.107 139.124 178.962 139.864 181.03L139.93 181.218C140.564 183.048 141.028 185.29 140.171 187.087C139.925 187.602 139.132 187.434 138.994 186.933C138.683 185.797 138.699 184.607 138.438 183.454C138.166 182.256 137.714 181.119 137.123 180.042C135.981 177.96 134.434 176.182 132.606 174.678L132.058 174.233C130.632 173.062 129.322 171.82 129.033 169.883C128.723 167.81 129.553 165.835 130.087 163.873C130.459 162.505 130.58 161.194 130.178 159.959C129.687 160.761 129.017 161.522 128.487 162.201C127.431 163.554 126.366 164.898 125.303 166.246C124.213 167.627 123.15 169.03 122.138 170.47C121.685 171.114 121.237 171.761 120.791 172.41C120.455 172.897 119.987 173.384 119.621 173.881C119.71 174.147 119.703 174.454 119.542 174.671C117.602 177.294 114.841 171.821 114.121 170.439C112.655 167.623 111.564 164.632 110.093 161.816C108.568 158.898 106.833 156.057 104.898 153.393C103.728 151.782 102.416 150.268 101.346 148.605C98.8238 150.893 95.5052 152.426 92.457 153.817C89.1079 155.345 85.6285 156.593 82.1947 157.918L81.1804 158.312C75.2639 160.622 69.2029 163.16 64.2851 167.263C58.5063 172.085 55.0876 178.805 52.5424 185.764C49.6126 193.775 47.1887 202.002 44.9292 210.224C43.7729 214.431 42.6758 218.657 41.6444 222.897C40.7355 226.632 39.9822 230.404 38.93 234.1C41.0638 234.025 43.4974 234.851 45.3192 235.09C53.6218 236.177 61.8126 237.91 69.6513 240.911C70.6195 241.282 70.8997 242.249 70.6888 243.033C71.2472 242.875 71.8052 242.716 72.3636 242.559C71.7518 241.621 72.0438 239.944 72.0919 238.905L72.0948 238.834C72.1443 237.449 72.2945 236.062 72.3919 234.68C72.5773 232.044 72.8188 229.428 73.1398 226.808L73.2217 226.153C73.5855 223.302 73.8545 220.435 74.2514 217.589L74.2984 217.263C74.108 216.535 73.8864 215.816 73.6538 215.1C73.0339 213.193 72.1591 211.397 71.3924 209.55C71.3019 209.332 71.6117 209.207 71.7564 209.338C73.0548 210.506 74.0862 211.989 74.9148 213.539C74.9292 213.466 74.9419 213.393 74.9569 213.32L75.0514 212.854C75.2846 211.719 75.5682 210.524 76.2644 209.603C76.3386 209.505 76.4852 209.485 76.5553 209.603C77.2217 210.731 77.2962 212.16 77.3987 213.443C77.5147 214.895 77.5293 216.366 77.5088 217.822C77.4688 220.667 77.2684 223.52 77.1086 226.361C76.9519 229.153 76.6442 231.909 76.2477 234.673L76.1723 235.191C75.9784 236.507 75.8197 237.839 75.564 239.146L75.4918 239.502C75.3551 240.15 75.271 241.063 74.9989 241.822C81.9999 239.869 89.0117 237.96 96.0367 236.084C101.114 234.729 106.197 233.393 111.277 232.05C111.545 231.566 111.879 231.115 112.296 230.711C113.668 229.382 115.488 228.788 117.156 229.812C117.292 229.895 117.303 230.108 117.156 230.189C116.836 230.363 116.516 230.543 116.201 230.729L119.252 229.903C121.532 229.285 123.84 228.512 126.174 228.081C130.472 225.959 135.096 224.423 139.624 222.905L140.158 222.724C142.476 221.933 144.874 221.048 147.27 220.61C149.024 220.289 151.082 220.676 151.788 222.473C152.68 223.062 153.52 223.754 154.331 224.434C154.917 224.926 155.479 225.448 156.05 225.957L156.155 226.05C156.622 226.455 156.992 226.727 157.107 227.372C157.166 227.705 156.954 228.156 156.544 228.112C155.286 227.977 154.264 226.519 153.411 225.649C152.753 224.976 152.089 224.28 151.487 223.54C151.137 223.731 150.656 223.697 150.433 223.274C149.276 221.083 146.107 222.601 144.354 223.121L141.842 223.865C140.586 224.237 139.33 224.612 138.077 224.992C134.633 226.039 131.205 227.21 127.729 228.171C128.04 228.513 127.997 229.121 127.407 229.352C124.686 230.42 121.701 230.973 118.875 231.705C117.09 232.169 115.306 232.634 113.524 233.103C113.218 233.598 112.998 234.159 112.905 234.811C112.565 237.21 113.221 239.978 113.861 242.298L113.957 242.644C114.482 244.51 115.255 246.797 116.864 247.975C117.257 248.262 117.757 248.462 118.261 248.507C121.41 246.885 124.56 245.264 127.711 243.645C128.294 243.345 128.834 243.751 128.965 244.234C130.076 244.052 131.184 243.764 132.194 243.421C133.89 242.845 135.215 241.746 136.805 240.986C139.883 239.515 143.025 241.321 145.781 242.695L146.416 243.007C147.651 243.607 150.222 244.759 150.815 243.119C151.388 241.532 149.575 239.836 148.404 239.122C147.009 238.27 145.384 237.815 143.806 237.435C142.906 237.218 141.994 237.041 141.077 236.912C140.037 236.766 138.962 236.788 137.96 236.45C137.463 236.283 137.386 235.492 137.96 235.361C139.502 235.01 141.343 235.393 142.952 235.784L143.793 235.992C145.414 236.39 147.05 236.889 148.527 237.683C149.6 238.26 150.734 239.137 151.474 240.211C152.117 239.614 152.917 239.634 153.75 239.855L154.203 239.981C154.95 240.188 155.555 240.331 156.282 240.187C156.379 239.658 156.478 239.129 156.583 238.6C157.619 233.398 158.755 228.215 160.009 223.061C162.171 214.17 164.672 205.376 167.493 196.673L167.776 195.803C168.427 193.812 168.95 191.643 169.999 189.815C170.991 188.085 172.58 187.089 174.468 186.562C176.611 185.963 178.862 185.65 181.048 185.246C181.535 185.156 182.024 185.07 182.512 184.981C182.1 184.236 181.792 183.391 181.515 182.742L181.466 182.629C180.87 181.271 180.335 179.888 179.819 178.497L179.432 177.452C178.499 174.934 177.536 172.458 176.224 170.104C174.843 167.626 173.011 165.6 170.728 163.923C166.072 160.505 160.46 158.761 155.944 155.107C155.759 154.958 155.996 154.702 156.184 154.796C159.233 156.329 162.525 157.371 165.697 158.619L166.322 158.866C168.829 159.86 171.375 160.942 173.544 162.552C175.963 164.347 177.869 166.576 179.301 169.226C180.712 171.839 181.615 174.763 182.61 177.554L182.877 178.297C183.278 179.412 183.693 180.524 184.168 181.609C184.546 182.471 185.25 183.454 185.57 184.438C186.446 184.286 187.321 184.134 188.198 183.987C207.184 180.816 226.382 178.953 245.623 178.408C246.375 178.387 246.765 179.105 246.654 179.762C244.807 190.685 243.166 201.645 241.366 212.576C240.58 217.347 239.779 222.114 238.958 226.879C238.543 229.293 238.062 231.698 237.669 234.115C237.351 236.068 237.12 238.036 236.575 239.943C236.085 241.653 235.335 243.302 234.101 244.606C232.772 246.013 230.917 246.694 229.049 247.015C224.308 247.831 219.445 248.165 214.666 248.709L189.219 251.605C189.591 254.986 189.619 258.315 189.448 261.735L189.351 263.603C189.271 265.105 189.176 266.609 188.961 268.096C188.69 269.96 187.838 271.539 186.582 272.932C185.428 274.211 184.027 275.303 182.664 276.348C181.25 277.434 179.788 278.482 178.125 279.154L177.909 279.24C176.449 279.809 173.712 280.692 171.718 280.369C171.978 281.676 172.483 283.081 172.036 284.374C171.828 284.975 171.043 285.274 170.562 284.763C169.61 283.751 169.535 282.413 169.31 281.093C169.075 279.718 168.873 278.338 168.693 276.956C168.345 274.282 168.075 271.583 167.992 268.887C167.907 266.118 167.94 263.345 168.089 260.579C168.166 259.158 168.261 257.739 168.441 256.327C168.518 255.725 168.596 255.123 168.686 254.523C168.719 254.304 168.755 254.086 168.794 253.868L166.51 254.126C163.008 254.517 159.504 254.87 155.978 254.925C155.56 254.932 155.239 254.741 155.029 254.464C154.805 254.829 154.415 255.09 153.857 255.088C148.932 255.069 144.345 253.458 139.866 251.559C137.608 250.602 135.385 249.565 133.123 248.616C131.013 247.73 128.756 247.098 126.696 246.1L121.283 248.94C121.244 249.08 121.193 249.212 121.139 249.323C120.786 250.042 120.091 250.433 119.382 250.727C118.701 251.009 117.995 251.097 117.308 251.026C113.203 253.178 109.097 255.328 104.988 257.473L100.879 259.616C92.6909 263.881 84.5353 268.215 76.2959 272.38L75.6893 272.686C72.8434 274.113 69.7874 275.56 66.6291 276.64C66.5729 277.44 66.6084 278.218 66.6754 279.064L66.6915 279.248C66.7857 280.249 66.9876 281.502 66.1855 282.214C65.7682 282.584 65.0229 282.586 64.7391 282.028C64.2243 281.015 64.6865 279.419 64.8496 278.319C64.9075 277.927 64.9781 277.525 65.0824 277.135C61.4617 278.213 57.7314 278.736 54.0469 278.131C50.4595 277.542 47.6812 275.281 45.4413 272.515C43.0774 269.597 41.3976 266.197 40.4964 262.551C39.4707 258.403 39.4037 254.119 39.4278 249.869C39.4534 245.345 39.6207 240.797 40.1708 236.303C39.5681 236.161 38.8996 236.039 38.2905 236.081C37.9888 236.564 37.4036 236.767 36.8748 236.704C35.7249 237.973 38.6417 239.27 39.5738 239.594C39.8974 239.707 39.8628 240.233 39.4895 240.217L39.2543 240.206C37.814 240.129 36.326 239.883 35.4792 238.544C34.8006 237.471 35.0045 236.2 35.8134 235.324C36.3477 230.271 37.625 225.349 38.8138 220.419C39.9805 215.58 41.2779 210.773 42.653 205.989L43.2695 203.848C45.4346 196.348 47.6977 188.787 50.6843 181.584C52.1757 177.988 53.8937 174.458 56.2225 171.322C58.3933 168.399 60.9562 165.897 63.9021 163.761C69.394 159.778 75.8382 157.371 82.1699 155.078L82.4533 154.976C85.7345 153.788 89.0076 152.587 92.2514 151.3C95.1203 150.163 97.8686 148.72 100.724 147.565C100.631 147.397 100.542 147.227 100.455 147.054L100.403 147.099C100.394 147.106 100.384 147.113 100.375 147.119C100.088 147.319 99.6648 147.221 99.4282 146.997C98.7601 146.367 98.9863 145.667 99.4323 145.012L99.4903 144.929C100.036 144.165 100.522 143.357 101.026 142.564L101.341 142.069C102.186 140.746 103.074 139.413 104.201 138.32C104.723 137.813 105.294 137.434 105.899 137.151C105.848 137.042 106.301 136.818 106.43 136.93C108.348 136.228 110.554 136.375 112.645 136.569M187.988 251.745L185.322 252.048C182.388 252.382 179.454 252.705 176.519 253.024L170.145 253.717C170.128 254.081 170.084 254.436 170.076 254.711C170.035 256.126 170.004 257.542 169.974 258.958C169.915 261.796 169.98 264.637 170.167 267.469C170.348 270.214 170.586 272.959 170.957 275.685L171.033 276.23L171.076 276.517C171.379 276.546 171.676 276.69 171.923 276.985C172.462 277.629 174.414 277.003 175.177 276.732C176.431 276.285 177.611 275.531 178.701 274.775C179.765 274.036 180.723 273.175 181.644 272.268L182.397 271.523C183.146 270.778 183.896 269.985 184.355 269.048C184.978 267.777 185.059 266.217 185.241 264.833C185.466 263.131 185.734 261.429 186.016 259.735M110.589 233.877L110.312 233.949C100.266 236.62 90.2353 239.369 80.1585 241.921C75.1717 243.185 70.1613 244.356 65.1684 245.596L64.3601 245.798C60.4212 246.794 56.4351 247.992 53.4188 250.85C53.3074 250.956 53.1458 250.794 53.2506 250.682C56.5014 247.22 61.1248 245.755 65.5639 244.484C66.3845 244.249 67.2061 244.02 68.0269 243.787C61.9897 241.634 55.8572 239.76 49.5832 238.424C47.9676 238.08 46.3333 237.828 44.719 237.482C43.5932 237.241 42.4937 236.893 41.3798 236.604L40.5036 236.384L40.4919 239.154C40.4773 243.078 40.4843 246.998 40.6844 250.921L40.7223 251.648C40.9557 256.014 41.3202 260.471 42.8689 264.587C44.1274 267.933 46.1334 271.084 48.7567 273.521C50.0841 274.753 51.5112 275.713 53.2753 276.187C54.9133 276.627 56.6294 276.678 58.3132 276.561C66.3898 275.997 73.5792 271.608 80.595 267.974C92.0704 262.031 103.547 256.09 115.034 250.169C114.724 249.956 114.431 249.712 114.165 249.437C112.625 247.845 111.812 245.667 111.279 243.557C110.711 241.311 110.371 238.904 110.331 236.585M125.205 252.463C125.306 252.409 125.424 252.477 125.429 252.591C125.464 253.469 124.979 254.335 124.617 255.125L124.579 255.21C124.139 256.189 123.657 257.156 123.158 258.107C122.162 260.007 121.127 261.887 120.046 263.74C117.874 267.469 115.459 271.04 112.606 274.286C111.961 275.02 110.901 274.079 111.315 273.29C113.309 269.483 115.634 265.889 118.027 262.327C119.225 260.543 120.423 258.757 121.632 256.982C122.137 256.241 122.648 255.502 123.173 254.775L123.49 254.34M244.35 180.588C234.269 180.893 224.2 181.55 214.167 182.581C204.836 183.54 195.54 184.815 186.295 186.406C184.365 186.738 182.436 187.084 180.51 187.444L179.355 187.661C177.428 188.026 175.075 188.177 173.36 189.206C171.552 190.292 171.063 192.56 170.461 194.43C169.754 196.63 169.065 198.836 168.394 201.047C165.73 209.827 163.297 218.684 161.127 227.598C160.049 232.024 159.093 236.473 158.086 240.914C157.191 244.86 156.203 248.762 155.172 252.668C155.299 252.569 155.455 252.494 155.643 252.454C160.766 251.363 165.995 250.889 171.195 250.287L171.698 250.228C177.076 249.596 182.455 248.967 187.837 248.362L223.469 244.353C225.57 244.117 227.822 244.085 229.867 243.521C233.344 242.561 234.159 238.673 234.742 235.576L234.76 235.482C236.519 226.125 237.919 216.686 239.559 207.306M156.001 241.791C154.618 241.699 152.724 240.432 151.675 240.523C152.226 241.448 152.474 242.502 152.157 243.629C151.273 246.764 147.277 245.142 145.351 244.184C143.773 243.399 142.249 242.437 140.502 242.069C138.522 241.653 137.181 242.441 135.508 243.348C134.135 244.094 132.639 244.629 131.1 244.906C130.282 245.054 129.505 245.069 128.73 245.012C128.683 245.05 128.63 245.085 128.57 245.117L128.16 245.332C130.015 245.417 131.905 245.99 133.631 246.514C135.42 247.057 137.177 247.712 138.924 248.382L140.642 249.042C144.881 250.666 149.27 252.208 153.857 252.195C154.187 252.194 154.457 252.285 154.67 252.434M148.261 231.968C149.628 231.801 150.889 231.98 151.981 232.87C153.298 233.944 154.183 235.724 156.077 235.84C156.629 235.875 156.757 236.651 156.208 236.813C154.799 237.231 153.658 236.468 152.698 235.478L152.052 234.803C151.103 233.82 150.228 233.06 148.618 233.119C146.893 233.182 145.166 233.58 143.453 233.783C141.512 234.013 139.572 234.208 137.625 234.377C137.535 234.385 137.519 234.242 137.604 234.222L139.784 233.679M146.942 226.379L147.167 226.356C149.152 226.164 150.967 226.156 152.739 227.224L153.079 227.43C154.677 228.401 156.417 229.546 157.416 231.119C157.579 231.377 157.309 231.68 157.036 231.614C155.115 231.153 153.711 229.743 152.096 228.688C150.283 227.504 148.411 227.7 146.344 227.884C144.343 228.062 142.343 228.306 140.361 228.64C138.499 228.953 136.631 229.448 134.751 229.606L134.751 229.602C134.536 229.601 134.414 229.279 134.633 229.169C136.541 228.216 138.752 227.765 140.828 227.329M207.23 206.756C207.038 205.838 208.167 205.413 208.69 206.141L208.801 206.294C209.931 207.843 211.566 209.787 211.483 211.756C212.476 211.778 213.506 212.382 213.893 213.279C214.072 213.694 214.133 214.185 214.093 214.694C214.996 214.764 215.981 215.357 216.533 215.935C217.448 216.892 217.52 218.245 216.864 219.363C215.432 221.801 212.306 222.688 209.666 222.886L209.572 222.893C206.846 223.081 202.918 223.031 201.049 220.691C199.245 218.434 201.238 216.606 203.282 215.614C202.75 215.128 202.474 214.431 202.733 213.696C203.188 212.405 204.794 211.906 205.701 211.008C206.808 209.913 207.539 208.412 207.247 206.842M78.985 172.393C78.9825 172.236 79.2033 172.177 79.2804 172.313C80.5717 174.586 81.2467 177.372 81.9346 179.875C82.655 182.498 83.2366 185.148 83.7591 187.817C84.8173 193.221 85.3812 198.595 85.4194 204.103C85.4247 204.889 84.144 205.098 84.0187 204.293C83.187 198.935 82.3901 193.571 81.552 188.215C81.1303 185.521 80.6395 182.837 80.1699 180.151M91.7684 176.352C91.6734 176.038 92.1293 175.933 92.2459 176.22C94.8373 182.583 95.7149 189.795 94.0512 196.509C93.7966 197.536 92.293 197.091 92.4851 196.077M125.195 170.697C125.182 170.463 125.486 170.426 125.601 170.587C126.829 172.318 127.338 174.636 129.492 175.53C130.568 175.977 131.778 175.899 132.728 176.653C133.364 177.158 133.851 177.954 133.374 178.718C133.22 178.965 132.79 179.089 132.581 178.82C132.276 178.43 132.115 177.962 131.701 177.669C131.118 177.256 130.33 177.23 129.661 177.036C128.795 176.785 128.032 176.345 127.407 175.692M145.708 141.83C145.835 141.766 145.956 141.807 146.037 141.916C146.153 142.072 146.139 142.224 145.997 142.331C146.186 142.718 146.41 143.686 146.441 143.827C146.571 144.398 146.708 144.967 146.852 145.534C147.142 146.679 147.397 147.833 147.687 148.978C147.995 150.192 148.362 151.393 148.771 152.577C148.797 152.654 148.826 152.732 148.856 152.811L148.903 152.931L148.914 152.913C148.997 152.782 149.17 152.874 149.15 153.012C149.131 153.139 149.105 153.264 149.084 153.391L149.126 153.504C149.393 154.223 149.576 154.981 149.086 155.615C148.903 155.853 148.701 155.993 148.45 156.035C148.047 157.365 147.541 158.669 146.999 159.922L146.841 160.288C146.044 162.116 145.195 163.92 143.927 165.477C142.542 167.176 140.637 168.336 139.431 170.198C138.87 171.064 138.48 171.975 138.163 172.953L138.044 173.325C137.819 174.016 137.559 174.687 136.91 175.093C136.703 175.222 136.393 175.181 136.226 175.004C134.896 173.597 136.289 170.968 137.091 169.605C138.206 167.709 139.82 166.497 141.436 165.067C143.178 163.526 144.289 161.464 145.363 159.432C146.022 158.188 146.657 156.917 147.326 155.667C146.627 155.049 146.403 153.821 146.167 152.968L146.145 152.891C145.754 151.524 145.443 150.122 145.246 148.714C145.057 147.36 144.978 146.026 145.028 144.664L145.043 144.317M148.307 148.275C148.153 148.063 148.409 147.823 148.621 147.867C149.909 148.134 151.169 148.914 152.325 149.545L152.448 149.612C153.371 150.109 154.3 150.719 154.785 151.687C155.312 152.738 155.268 153.949 155.197 155.092L155.19 155.199C155.102 156.569 155.087 157.992 154.798 159.338C154.649 160.026 154.026 160.22 153.493 160.058C152.859 162.061 151.077 163.537 149.776 165.118C148.116 167.134 148.429 169.855 148.602 172.282C148.672 173.265 147.45 173.544 146.821 173.02L145.37 171.815C145.129 171.614 144.888 171.412 144.647 171.21C144.441 171.036 144.237 170.861 144.034 170.684L143.732 170.417C143.598 170.297 143.006 169.636 142.833 169.608C142.414 169.542 141.418 170.647 141.077 170.993L141.034 171.037C140.393 171.666 139.813 172.343 139.273 173.061C139.174 173.193 138.98 173.083 139.051 172.931C139.535 171.894 140.097 170.903 140.765 169.976L140.9 169.791C141.344 169.192 141.94 168.134 142.725 167.958C143.682 167.742 144.638 168.702 145.335 169.236L145.379 169.269C145.711 169.518 146.038 169.771 146.365 170.026C146.331 168.219 146.559 166.393 147.492 164.835C148.15 163.737 149.135 162.923 149.978 161.979C150.917 160.928 151.407 159.636 152.257 158.542C152.366 158.401 152.517 158.325 152.68 158.301C152.713 157.421 152.843 156.532 152.943 155.662L152.972 155.401C153.073 154.456 153.312 153.3 152.849 152.415C152.412 151.578 151.409 150.987 150.666 150.42L150.059 149.949M106.494 138.274C106.107 138.498 105.744 138.777 105.415 139.126C104.38 140.225 103.639 141.593 102.919 142.908C102.531 143.617 102.157 144.333 101.766 145.04C101.596 145.347 101.421 145.651 101.244 145.955C101.163 146.095 100.92 146.373 100.799 146.544C100.933 146.732 101.071 146.917 101.212 147.099C101.266 147.169 104.98 151.217 106.275 152.801C108.258 155.227 110.03 157.79 111.545 160.534C113.028 163.22 114.158 166.064 115.532 168.803C116.22 170.174 116.988 171.535 117.967 172.722C118.005 172.768 118.045 172.812 118.084 172.857C118.458 171.847 119.415 170.766 119.885 170.145L119.929 170.086C120.996 168.648 122.123 167.253 123.274 165.881C124.325 164.629 125.403 163.404 126.507 162.199L126.922 161.748C127.691 160.917 128.668 159.673 129.795 159.079C129.674 158.864 129.534 158.651 129.374 158.441C128.319 157.062 126.827 156.061 125.356 155.158L124.401 154.577C120.804 152.384 117.262 150.089 114.139 147.239C112.487 145.732 110.857 144.152 109.468 142.393L108.977 141.772M112.497 137.188C110.812 137.329 108.993 137.296 107.436 137.845C108.82 139.154 110.136 140.567 111.487 141.898C111.608 140.998 111.854 140.109 112.062 139.231" fill="black"/>
<path fill-rule="evenodd" clip-rule="evenodd" d="M166.838 97.8957C166.754 93.161 166.661 88.3317 165.959 83.6431C165.272 79.0593 163.384 74.916 160.139 71.5875C153.247 64.5172 143.256 62.7902 133.956 61.2076L118.056 58.5017C113.205 57.6764 108.03 56.3571 103.129 57.5276C100.714 58.1044 98.6634 59.4443 96.789 61.0297C94.9823 62.5577 93.0398 64.1987 91.8155 66.2545C90.5892 68.3132 90.1673 70.7199 89.7686 73.0483C89.319 75.6735 88.9696 78.3192 88.7215 80.9712C88.2242 86.2846 88.1563 91.6378 88.517 96.9622C88.6918 99.5447 88.9698 102.12 89.3249 104.683C89.5009 105.955 89.6999 107.223 89.9246 108.486C89.9908 108.859 90.0412 109.272 90.1091 109.688C89.6076 111.118 89.3225 112.599 89.3455 114.074C89.4132 118.418 93.0703 121.152 96.7572 122.621C98.8949 123.472 101.13 124.05 103.23 125.001C105.44 126.002 106.944 127.623 108.455 129.473C111.336 133.002 114.587 136.173 118.3 138.818C126.172 144.428 136.142 147.081 145.693 145.067C147.985 144.584 150.297 143.834 152.357 142.703C154.531 141.51 156.167 139.78 157.54 137.735C160.09 133.939 161.919 129.665 163.302 125.315C164.713 120.878 165.715 116.433 166.261 111.806C166.805 107.194 166.92 102.536 166.838 97.8957V97.8957Z" fill="#EDB98A"/>
<path fill-rule="evenodd" clip-rule="evenodd" d="M116.099 42.0087C122.679 41.1014 131.76 44.0503 135.037 49.9965C150.681 46.2991 170.413 46.178 183.307 58.4864C196.761 73.0869 179.862 92.3377 168.656 96.678C169.472 100.653 168.2 126.117 159.199 137.476C152.055 147.1 135.42 151.542 127.722 140.046L127.662 139.952C126.838 138.624 127.548 138.667 128.394 139.654C135.932 146.299 146.181 146.413 154.078 139.4C168.88 126.582 167.354 95.1517 160.311 76.969C140.255 74.7608 118.782 80.8547 104.93 95.9892L105.867 101.642C106.026 102.606 106.208 103.568 106.346 104.534C106.434 105.154 106.444 105.769 106.016 106.271C104.603 107.926 102.222 105.439 100.262 104.45C99.6834 104.368 99.1039 104.337 98.5355 104.377C89.1206 105.593 90.9757 123.902 101.323 120.692C102.193 120.15 102.94 120.315 103.277 121.103C105.743 123.368 107.37 127.407 111.467 131.298C112.913 132.757 114.229 133.978 115.855 135.149C116.81 136.117 119.693 137.105 118.779 138.762C117.051 142.533 106.862 130.688 105.06 127.412C99.4161 129.646 93.161 128.887 87.3118 128.341C56.4538 126.733 60.5732 94.1237 85.8668 73.5358C90.628 70.0219 95.8811 67.1554 101.342 64.9495C102.087 64.6483 101.761 63.4212 101.005 63.7266C97.3922 65.1864 93.87 66.9239 90.5125 68.9349L90.5074 67.7327C90.5025 65.7077 90.5342 63.5994 90.885 61.7492C91.0604 60.4672 91.3553 59.0979 91.8095 58.0677C92.3709 54.9095 101.165 44.0689 116.099 42.0087ZM98.1237 108.58C98.6002 108.127 99.4896 108.668 99.9138 108.654C100.998 108.803 102.029 109.262 102.833 109.829C103.363 110.127 103.735 110.407 104.046 110.664L104.054 110.662C104.052 110.662 104.049 110.664 104.047 110.665L104.076 110.685C104.528 111.007 106.185 112.822 105.138 112.334C105.06 112.233 104.98 112.135 104.9 112.039C104.891 112.052 104.879 112.065 104.865 112.078L104.924 112.165C105.813 113.506 104.277 112.093 104.041 111.718C104.03 111.727 104.017 111.733 104.005 111.74L104.312 112.115C104.355 112.168 104.389 112.211 104.417 112.247L104.482 112.31C105.511 113.323 105.543 114.235 104.348 112.737C104.395 112.807 104.433 112.882 104.438 112.949L104.509 113.039C105.447 114.251 104.684 113.821 104.218 113.303L104.179 113.258L104.187 113.271C104.62 113.94 103.76 113.47 103.608 113.112L103.601 113.096C103.436 112.96 103.334 112.808 103.299 112.77L103.292 112.763C102.486 111.935 101.317 111.234 100.323 110.915C100.179 110.888 100.034 110.866 99.8866 110.85C99.2893 110.717 98.6855 110.625 98.0754 110.576C98.0008 110.567 97.9251 110.512 97.8686 110.441C96.946 110.41 97.2308 110.031 97.6136 109.96L97.6203 109.959L97.5443 109.953C96.9523 109.895 96.5479 109.682 97.1466 109.551L97.2224 109.536C97.2132 109.521 97.2049 109.507 97.1969 109.492C96.6842 109.436 97.0188 108.936 97.3034 109.057C97.1836 108.664 97.7309 108.86 97.7992 108.802C97.8513 108.744 97.916 108.693 97.9533 108.69C98.1182 108.574 98.0383 108.584 98.1237 108.58ZM101.261 102.226L101.141 102.296C101.043 102.353 100.944 102.391 100.843 102.413C100.985 102.474 101.125 102.539 101.263 102.609C101.261 102.523 101.259 102.438 101.259 102.353L101.261 102.226Z" fill="black"/>
<path fill-rule="evenodd" clip-rule="evenodd" d="M147.453 124.137C147.777 123.573 148.523 123.051 149.206 123.131C152.265 123.49 152.26 127.2 151.078 129.366C150.031 131.287 147.864 132.414 145.695 132.249C143.416 132.076 141.474 130.736 140.619 128.603C140.054 127.192 139.793 124.588 141.296 123.64C141.324 123.622 141.37 123.627 141.392 123.652C142.113 124.491 142.142 125.751 142.773 126.685C143.36 127.553 144.271 128.271 145.34 128.381C146.137 128.464 146.944 128.176 147.256 127.46C147.425 127.072 147.406 126.862 147.343 126.595L147.285 126.363C147.085 125.551 146.995 124.933 147.453 124.137ZM148.271 107.866C149.866 108.837 152.297 111.099 150.581 113.504C148.56 115.624 145.652 113.193 144.218 112.093C142.889 111.241 141.396 113.433 142.629 114.428C152.986 122.099 157.19 108.12 149.078 106.726C148.184 106.572 147.853 107.566 148.271 107.866ZM131.424 101.214C132.403 99.7445 134.638 99.9609 135.177 101.705C135.47 102.65 135.066 103.499 135.087 104.442C135.104 105.239 135.052 106.127 134.808 106.899C134.251 108.659 132.669 109.903 130.797 109.851C128.931 109.8 127.287 108.618 126.506 106.954C125.722 105.284 125.888 103.555 126.46 101.857C126.488 101.775 126.595 101.736 126.659 101.805C127.336 102.524 127.831 103.284 128.344 104.089L128.869 104.915C129.271 105.537 129.854 106.331 130.604 106.281L130.716 106.27C130.925 106.252 130.893 106.294 131.053 106.01C131.128 105.878 131.114 105.634 131.15 105.479L131.163 105.426L131.156 105.398C131.14 105.323 131.124 105.181 131.111 104.936L131.109 104.881C131.054 103.732 130.73 102.256 131.424 101.214ZM156.246 102.193C156.07 100.313 158.712 99.8955 159.59 101.286C160.048 102.012 160.182 102.923 160.283 103.786L160.33 104.196C160.434 105.082 160.475 106.005 160.091 106.832C159.485 108.134 158.167 108.823 156.746 108.714C155.388 108.609 154.15 107.822 153.497 106.627C152.915 105.561 152.336 103.478 153.043 102.366C153.086 102.299 153.171 102.29 153.23 102.342C153.898 102.935 154.007 104.017 154.404 104.79C154.813 105.587 155.435 106.364 156.376 106.485C157.277 106.601 157.621 106.109 157.391 105.25C157.095 104.141 156.357 103.386 156.246 102.193ZM132.137 90.0387L132.569 89.8732C134.049 89.3138 136.081 88.6673 137.285 89.8713C138.027 90.6138 138.169 91.7075 137.639 92.6136C136.997 93.7112 135.845 93.7382 134.733 93.8999C133.468 94.0838 132.182 94.4333 131.004 94.9317C129.678 95.4933 128.446 96.1932 127.24 96.975C126.094 97.7179 124.952 98.9321 123.579 99.161C123.524 99.1703 123.46 99.1462 123.445 99.0847C123.134 97.7427 124 96.4219 124.773 95.3749C125.708 94.1072 126.841 93.0667 128.107 92.1338C129.329 91.2333 130.726 90.5825 132.137 90.0387ZM159.025 94.8103L159.156 94.7872C160.054 94.6377 160.867 94.6721 161.544 95.3833C162.06 95.9258 162.259 96.629 162.013 97.3463C161.786 98.008 161.278 98.6803 160.541 98.819C158.053 99.2873 155.296 99.21 152.795 98.8553C151.651 98.693 150.496 98.4944 149.382 98.1811L148.869 98.0324C147.939 97.7665 146.873 97.4888 146.197 96.8042C145.954 96.5582 146.095 96.2061 146.385 96.0921C147.565 95.6301 149.181 95.8759 150.438 95.8398C151.901 95.7979 153.366 95.6882 154.822 95.5371C156.245 95.3892 157.622 95.0677 159.025 94.8103Z" fill="black"/>
<path fill-rule="evenodd" clip-rule="evenodd" d="M170.723 102.353C168.709 115.983 154.648 117.49 152.15 103.959C152.551 103.784 152.839 103.438 152.779 102.767C152.765 99.818 153.68 96.7014 156.339 95.0616C159.087 93.3695 162.303 93.2017 165.482 93.2444C171.55 93.0998 171.423 98.1737 170.723 102.353M149.949 96.4256C148.045 96.3453 145.635 96.4125 143.929 97.5733C143.46 96.3098 142.242 94.9608 141.01 94.2394C145.587 94.3734 150.298 93.9228 154.908 93.573C153.805 94.3256 152.778 95.4564 152.111 96.7636C151.491 96.4332 150.604 96.4641 149.949 96.4256M141.555 103.798C136.274 121.982 123.093 114.056 121.656 111.726C119.064 107.87 118.576 98.4956 120.834 95.9892C124.066 93.7227 128.642 94.306 132.46 94.2504C139.474 94.3451 144.456 96.4442 141.555 103.798M176.958 95.435C175.524 95.2473 173.991 95.2095 172.657 95.8414C172.246 94.0951 170.957 92.6351 169.501 91.9925C169.324 91.7715 169.351 91.6527 168.749 91.6859C165.053 90.5746 160.917 91.1626 157.365 92.3022C151.755 92.7748 145.87 93.1474 140.213 93.7985C134.914 91.4179 118.923 91.0689 117.929 96.9367C116.679 96.7496 114.55 95.7654 113.5 97.1005C105.795 95.7937 97.833 97.6098 90.0945 98.4187C88.1466 98.7775 87.1433 102.645 89.3544 102.592C90.5975 102.254 89.3162 100.184 90.99 100.028C98.4564 99.2123 105.76 98.0549 113.302 97.9194C113.04 99.2224 118.291 99.3072 118.369 98.5463C118.38 98.552 118.392 98.5558 118.403 98.5609C117.106 103.399 118.277 110.361 120.622 113.361C123.908 117.289 132.157 118.416 135.814 115.889C140.533 113.556 145.441 101.847 144.062 97.9566C146.564 97.1632 149.038 97.4014 151.635 97.8055C151.041 99.4855 150.014 103.621 151.491 103.98C151.22 112.191 158.689 117.314 165.576 113.946C171.536 111.147 173.62 102.288 172.891 96.9102C173.633 98.3445 179.863 96.783 176.958 95.435" fill="#454545"/>
<rect x="191" y="199" width="30" height="27" fill="#A8A8A8"/>
<path d="M209.93 222.5L202.93 223.5L205.43 215H208.43L209.93 222.5Z" fill="white"/>
<path d="M199.93 216.5C201.93 216.5 204.096 215.5 204.93 215H208.93H213.43C214.93 215 215.93 208 207.93 208C199.93 208 197.43 216.5 199.93 216.5Z" fill="white"/>
<circle cx="204.5" cy="212.5" r="0.5" fill="#C4C4C4"/>
<ellipse cx="207" cy="210.5" rx="1" ry="0.5" fill="#C4C4C4"/>
<circle cx="210.5" cy="211.5" r="0.5" fill="#C4C4C4"/>
<path d="M134 82.5C139.2 78.9 138.167 76.3333 137 75.5L124 73L101 84.5L104.5 99L112 94.5L126 80L120.5 88.5C122.833 88 128.8 86.1 134 82.5Z" fill="black"/>
<path d="M159 78.5L155.5 75.5H168L163 80L159 78.5Z" fill="black"/>
<path d="M134 82.5C139.2 78.9 138.167 76.3333 137 75.5L124 73L101 84.5L104.5 99L112 94.5L126 80L120.5 88.5C122.833 88 128.8 86.1 134 82.5Z" stroke="black"/>
<path d="M159 78.5L155.5 75.5H168L163 80L159 78.5Z" stroke="black"/>
</svg>
